<svg width="1587" height="1153" fill="none" xmlns="http://www.w3.org/2000/svg"><g clip-path="url(#clip0_565_7)"><path d="M832.939 825.456l53.033-53.033m-29.017 42.55l53.033-53.033m125.952-539.484l53.03-53.033m-29.01 42.549l53.03-53.033M483.939 649.456l53.033-53.033m-29.017 42.549l53.033-53.033M13.939 1055.46l53.033-53.04m-29.017 42.55l53.033-53.03M1418.94 561.456l53.03-53.033m-29.01 42.549l53.03-53.033m-50.05 391.517l53.03-53.033m-29.01 42.55l53.03-53.033M287.939 365.456l53.033-53.033m-29.017 42.549l53.033-53.033m579.951 358.517l53.033-53.033m-29.017 42.549l53.035-53.033M-1.06 436.456l53.032-53.033m-29.017 42.549l53.033-53.033" stroke="#EEE" stroke-width="3"/><path d="M269.519 671.506l-4.759 17.759-13-13.001 17.759-4.758zm435 220l-4.759 17.759-13-13.001 17.759-4.758zm-384-745l-4.759 17.759-13-13.001 17.759-4.758zm370.99 550.997l-6.025 22.484-16.459-16.459 22.484-6.025zm711.001-46l-6.03 22.484-16.46-16.459 22.49-6.025zm-95-318l-6.03 22.484-16.46-16.459 22.49-6.025zm-113 347l-6.03 22.484-16.46-16.459 22.49-6.025zm305 471.997l-6.03 22.49-16.46-16.46 22.49-6.03zM59.019 235.673l-7.4 27.618L31.4 243.073l27.619-7.4z" fill="#EEE"/><path d="M60.94 63.456l53.032-53.033m-29.017 42.55L137.988-.062" stroke="#EEE" stroke-width="3"/></g><defs><clipPath id="clip0_565_7"><path fill="#fff" d="M0 0H1587V1153H0z"/></clipPath></defs></svg>